<?xml version="1.0" encoding="iso-8859-1"?>
<!-- Generator: Adobe Illustrator 19.0.0, SVG Export Plug-In . SVG Version: 6.00 Build 0)  -->
<svg version="1.1" id="Capa_1" xmlns="http://www.w3.org/2000/svg" xmlns:xlink="http://www.w3.org/1999/xlink" x="0px" y="0px"
	 viewBox="0 0 512 512" style="enable-background:new 0 0 512 512;" xml:space="preserve">
<g>
	<g>
		<path d="M472,392V0H115C73.645,0,40,33.645,40,75v362c0,41.355,33.645,75,75,75h357v-30h-30v-90H472z M70,75
			c0-19.555,12.541-36.228,30-42.42v330.934c-11.077,2.258-21.276,6.958-30,13.521V75z M412,422H115v30h297v30H115
			c-24.813,0-45-20.187-45-45s20.187-45,45-45h297V422z M130,362V30h312v332H130z"/>
	</g>
</g>
<g>
	<g>
		<path d="M286,85c-61.206,0-111,49.794-111,111s49.794,111,111,111s111-49.794,111-111S347.206,85,286,85z M365.585,181h-32.948
			c-1.001-20.623-4.098-40.595-9.471-56.933C344.912,135.349,360.918,156.191,365.585,181z M206.415,211h32.948
			c1.001,20.623,4.098,40.595,9.471,56.933C227.087,256.651,211.082,235.809,206.415,211z M239.363,181h-32.948
			c4.667-24.809,20.672-45.651,42.419-56.933C243.461,140.405,240.364,160.377,239.363,181z M286,276.109
			c-5.306-5.611-14.577-27.605-16.598-65.109h33.196C300.577,248.504,291.306,270.499,286,276.109z M269.403,181
			c2.021-37.504,11.292-59.499,16.598-65.109c5.305,5.61,14.576,27.605,16.597,65.109H269.403z M323.166,267.933
			c5.373-16.338,8.47-36.31,9.471-56.933h32.948C360.918,235.809,344.912,256.651,323.166,267.933z"/>
	</g>
</g>
<g>
</g>
<g>
</g>
<g>
</g>
<g>
</g>
<g>
</g>
<g>
</g>
<g>
</g>
<g>
</g>
<g>
</g>
<g>
</g>
<g>
</g>
<g>
</g>
<g>
</g>
<g>
</g>
<g>
</g>
</svg>
